<svg xmlns="http://www.w3.org/2000/svg" xmlns:xlink="http://www.w3.org/1999/xlink" width="500" zoomAndPan="magnify" viewBox="0 0 375 149.999998" height="200" preserveAspectRatio="xMidYMid meet" version="1.0"><defs><clipPath id="f74bc2c5ae"><path d="M 0 43 L 71 43 L 71 102.980469 L 0 102.980469 Z M 0 43 " clip-rule="nonzero"/></clipPath><clipPath id="3a90d8e5de"><path d="M 90 42.230469 L 374 42.230469 L 374 102.980469 L 90 102.980469 Z M 90 42.230469 " clip-rule="nonzero"/></clipPath></defs><g clip-path="url(#f74bc2c5ae)"><path fill="#ffffff" d="M 44.308594 43.601562 C 32.289062 43.59375 19.746094 46.304688 7.089844 49.820312 C 5.484375 50.144531 3.914062 51.199219 3.085938 52.5 C 2.324219 53.726562 2.046875 54.960938 1.808594 56.25 C 0.578125 63.148438 0.726562 69.921875 0.984375 77.425781 C 1.039062 79.144531 1.292969 81.179688 2.09375 82.417969 C 2.933594 83.667969 4.367188 84.464844 6.082031 84.722656 C 8.269531 85.046875 10.464844 85.316406 12.664062 85.542969 L 12.179688 99.089844 C 12.105469 100.167969 12.628906 101.0625 13.285156 101.578125 C 13.867188 102.023438 14.519531 102.222656 15.191406 102.273438 C 16.527344 102.375 18.097656 101.800781 18.878906 100.316406 C 22.292969 93.734375 24.433594 90.832031 28.707031 86.460938 C 39.84375 86.734375 49.566406 86.113281 60.574219 85.300781 C 64.464844 85.199219 67.136719 82.011719 67.84375 79.46875 C 69.953125 72.875 70.28125 64.738281 70.507812 56.511719 C 70.601562 53.253906 69.472656 50.050781 67.472656 48.359375 C 65.570312 46.816406 63.269531 46.257812 61.160156 45.683594 C 55.296875 44.355469 49.433594 43.640625 44.308594 43.601562 Z M 60.316406 48.757812 C 62.429688 49.332031 64.292969 49.882812 65.46875 50.839844 C 67.425781 52.925781 67.363281 54.3125 67.335938 56.5625 C 67.113281 64.542969 66.730469 72.285156 64.933594 78.152344 C 64.15625 80.34375 62.804688 81.898438 60.253906 82.136719 C 49.039062 82.964844 39.308594 83.605469 28.035156 83.285156 C 27.574219 83.273438 27.175781 83.429688 26.851562 83.757812 C 22.113281 88.546875 19.691406 91.871094 16.082031 98.828125 C 15.996094 98.988281 15.816406 99.085938 15.589844 99.101562 C 15.441406 99.09375 15.378906 98.976562 15.371094 98.871094 L 15.859375 84.179688 C 15.886719 83.386719 15.234375 82.628906 14.449219 82.542969 C 11.816406 82.292969 9.191406 81.96875 6.574219 81.578125 C 5.445312 81.40625 5.027344 81.09375 4.71875 80.632812 C 4.179688 79.347656 4.191406 78.554688 4.152344 77.320312 C 3.898438 69.878906 3.773438 63.378906 4.914062 56.914062 C 5.019531 55.957031 5.378906 54.976562 5.757812 54.160156 C 6.386719 53.175781 7.351562 53.03125 8.316406 52.761719 C 20.695312 49.339844 32.804688 46.78125 44.207031 46.773438 C 49.796875 46.976562 55.664062 47.539062 60.316406 48.757812 Z M 17.5625 61.359375 C 15.855469 63.402344 16.027344 66.179688 17.34375 68.042969 C 18.03125 69.015625 19.105469 69.796875 20.414062 69.976562 C 22.109375 70.117188 23.1875 69.425781 24.347656 68.636719 C 26.453125 66.804688 26.667969 63.609375 25.066406 61.300781 C 24.25 60.125 22.949219 59.417969 21.617188 59.367188 C 19.792969 59.386719 18.554688 60.203125 17.5625 61.355469 Z M 36.007812 59.6875 C 34.308594 59.742188 32.9375 60.921875 32.097656 62.191406 C 31.136719 63.644531 30.578125 65.464844 31.355469 67.25 C 32.847656 70.679688 38.007812 70.636719 40.066406 67.148438 C 41.015625 65.542969 40.773438 63.714844 40.066406 62.390625 C 39.363281 61.066406 38.300781 59.988281 36.75 59.738281 C 36.503906 59.699219 36.257812 59.683594 36.007812 59.6875 Z M 50.984375 60.011719 C 50.457031 60 49.910156 60.046875 49.402344 60.183594 C 47.359375 60.730469 45.621094 62.839844 45.882812 65.539062 C 46.019531 66.894531 46.640625 68.21875 47.765625 69.132812 C 48.890625 70.042969 50.527344 70.453125 52.25 70.097656 C 54.226562 69.695312 55.453125 68.097656 55.863281 66.554688 C 56.273438 65.011719 56.167969 63.441406 55.21875 62.167969 C 54.71875 61.5 54.09375 60.976562 53.351562 60.597656 C 52.609375 60.21875 51.820312 60.023438 50.984375 60.011719 Z M 21.476562 62.539062 C 21.859375 62.542969 22.160156 62.664062 22.46875 63.109375 C 23.160156 64.109375 22.96875 65.625 22.269531 66.234375 C 21.574219 66.839844 21.140625 66.894531 20.835938 66.851562 C 20.53125 66.8125 20.21875 66.601562 19.941406 66.207031 C 19.414062 65.460938 19.257812 64.25 19.953125 63.386719 C 20.324219 62.894531 21.003906 62.589844 21.480469 62.539062 Z M 36.230469 62.886719 C 36.289062 62.894531 36.953125 63.28125 37.269531 63.878906 C 37.589844 64.472656 37.648438 65.027344 37.347656 65.539062 C 36.449219 67.058594 34.539062 66.648438 34.25 65.984375 C 34.140625 65.734375 34.222656 64.71875 34.746094 63.929688 C 35.269531 63.136719 35.925781 62.839844 36.230469 62.886719 Z M 52.667969 64.050781 C 52.765625 64.179688 53 65.050781 52.816406 65.738281 C 52.632812 66.425781 52.335938 66.851562 51.605469 67 C 50.667969 67.195312 50.140625 67 49.746094 66.679688 C 49.351562 66.359375 49.085938 65.820312 49.027344 65.242188 C 48.890625 63.808594 49.402344 63.476562 50.21875 63.257812 C 51.167969 63.023438 52.242188 63.433594 52.667969 64.050781 Z M 52.667969 64.050781 " fill-opacity="1" fill-rule="nonzero"/></g><g clip-path="url(#3a90d8e5de)"><path fill="#ffffff" d="M 90.429688 50.015625 C 90.453125 49.609375 90.601562 49.246094 90.875 48.921875 C 91.160156 48.582031 91.523438 48.421875 91.964844 48.4375 L 102.585938 48.4375 C 102.945312 48.4375 103.3125 48.589844 103.695312 48.886719 C 104.078125 49.164062 104.269531 49.539062 104.265625 50.015625 L 104.265625 66.980469 L 122.035156 66.980469 L 122.035156 50.015625 C 122.035156 49.585938 122.183594 49.214844 122.484375 48.90625 C 122.78125 48.59375 123.167969 48.4375 123.644531 48.4375 L 134.121094 48.4375 C 134.597656 48.4375 135.015625 48.558594 135.371094 48.796875 C 135.730469 49.035156 135.910156 49.417969 135.910156 49.941406 L 135.910156 100.023438 C 135.910156 100.546875 135.753906 100.941406 135.441406 101.203125 C 135.136719 101.464844 134.730469 101.597656 134.230469 101.597656 L 123.644531 101.597656 C 123.167969 101.597656 122.78125 101.464844 122.484375 101.203125 C 122.183594 100.941406 122.035156 100.546875 122.035156 100.023438 L 122.035156 79.691406 L 104.265625 79.691406 L 104.265625 100.023438 C 104.265625 100.523438 104.105469 100.910156 103.785156 101.1875 C 103.460938 101.460938 103.027344 101.597656 102.476562 101.597656 L 91.964844 101.597656 C 90.964844 101.597656 90.453125 101.132812 90.429688 100.203125 Z M 188.253906 100.988281 C 187.945312 101.25 187.617188 101.417969 187.269531 101.488281 C 186.949219 101.558594 186.621094 101.59375 186.289062 101.597656 L 180.890625 101.597656 C 180.460938 101.597656 180.089844 101.519531 179.78125 101.363281 C 179.46875 101.210938 179.207031 101 178.992188 100.738281 C 178.773438 100.464844 178.59375 100.167969 178.457031 99.84375 C 178.316406 99.507812 178.195312 99.160156 178.101562 98.804688 L 176.992188 94.222656 C 176.636719 94.960938 176.117188 95.804688 175.4375 96.746094 C 174.699219 97.75 173.832031 98.632812 172.84375 99.394531 C 171.796875 100.21875 170.542969 100.910156 169.089844 101.472656 C 167.636719 102.03125 165.96875 102.3125 164.082031 102.3125 C 161.367188 102.3125 158.898438 101.789062 156.683594 100.738281 C 154.488281 99.710938 152.597656 98.28125 151.015625 96.441406 C 149.457031 94.628906 148.246094 92.511719 147.386719 90.085938 C 146.527344 87.667969 146.097656 85.082031 146.097656 82.339844 L 146.097656 58.890625 C 146.097656 57.984375 146.296875 57.300781 146.691406 56.832031 C 147.082031 56.367188 147.707031 56.136719 148.566406 56.136719 L 156.824219 56.136719 C 157.851562 56.136719 158.554688 56.308594 158.933594 56.65625 C 159.316406 57 159.507812 57.675781 159.507812 58.675781 L 159.507812 81.980469 C 159.507812 83.007812 159.742188 83.980469 160.203125 84.898438 C 160.671875 85.816406 161.285156 86.628906 162.046875 87.332031 C 162.808594 88.035156 163.671875 88.59375 164.640625 88.996094 C 165.605469 89.402344 166.585938 89.605469 167.589844 89.605469 C 168.445312 89.605469 169.335938 89.402344 170.253906 88.996094 C 171.183594 88.585938 172.027344 88.042969 172.789062 87.367188 C 173.566406 86.6875 174.203125 85.886719 174.703125 84.96875 C 175.207031 84.050781 175.453125 83.078125 175.453125 82.050781 L 175.453125 58.785156 C 175.453125 58.378906 175.53125 57.972656 175.6875 57.566406 C 175.84375 57.164062 176.074219 56.851562 176.382812 56.636719 C 176.695312 56.445312 176.988281 56.316406 177.261719 56.242188 C 177.535156 56.171875 177.851562 56.132812 178.207031 56.132812 L 186.289062 56.132812 C 187.3125 56.132812 188.050781 56.386719 188.503906 56.886719 C 188.957031 57.386719 189.183594 58.054688 189.183594 58.890625 L 189.183594 98.949219 C 189.183594 99.402344 189.082031 99.820312 188.882812 100.203125 C 188.679688 100.582031 188.398438 100.882812 188.042969 101.09375 Z M 229.765625 96.046875 C 229.125 96.695312 228.414062 97.386719 227.640625 98.125 C 226.867188 98.863281 226.011719 99.558594 225.085938 100.203125 C 224.144531 100.851562 223.144531 101.382812 222.082031 101.792969 C 220.964844 102.222656 219.808594 102.429688 218.613281 102.421875 C 215.371094 102.421875 212.386719 101.8125 209.652344 100.59375 C 206.964844 99.414062 204.617188 97.75 202.609375 95.601562 C 200.644531 93.488281 199.105469 91 198 88.136719 C 196.890625 85.273438 196.335938 82.195312 196.335938 78.902344 C 196.335938 75.582031 196.890625 72.5 198 69.648438 C 199.105469 66.796875 200.644531 64.316406 202.609375 62.203125 C 204.613281 60.058594 206.960938 58.398438 209.652344 57.226562 C 212.386719 56.023438 215.371094 55.417969 218.613281 55.417969 C 219.921875 55.417969 221.121094 55.609375 222.207031 55.992188 C 223.257812 56.355469 224.246094 56.847656 225.171875 57.460938 C 226.066406 58.054688 226.890625 58.730469 227.640625 59.480469 C 228.390625 60.234375 229.101562 60.96875 229.765625 61.683594 L 229.765625 45.324219 C 229.765625 44.5625 230 43.917969 230.464844 43.390625 C 230.929688 42.867188 231.625 42.605469 232.558594 42.605469 L 240.601562 42.605469 C 240.910156 42.605469 241.238281 42.667969 241.585938 42.800781 C 241.929688 42.933594 242.246094 43.117188 242.535156 43.355469 C 242.816406 43.59375 243.050781 43.882812 243.230469 44.214844 C 243.40625 44.550781 243.496094 44.917969 243.496094 45.324219 L 243.496094 98.839844 C 243.496094 100.679688 242.535156 101.597656 240.601562 101.597656 L 233.59375 101.597656 C 233.117188 101.597656 232.746094 101.535156 232.484375 101.417969 C 232.222656 101.300781 232 101.125 231.824219 100.898438 C 231.621094 100.636719 231.460938 100.347656 231.339844 100.039062 C 231.171875 99.636719 230.992188 99.238281 230.804688 98.839844 Z M 209.207031 78.902344 C 209.195312 80.417969 209.441406 81.890625 209.941406 83.324219 C 210.429688 84.695312 211.125 85.882812 212.035156 86.882812 C 212.957031 87.90625 214.046875 88.699219 215.304688 89.265625 C 216.578125 89.851562 217.992188 90.140625 219.542969 90.140625 C 221.066406 90.140625 222.503906 89.867188 223.851562 89.320312 C 225.171875 88.789062 226.34375 88.03125 227.371094 87.046875 C 228.390625 86.058594 229.195312 84.917969 229.785156 83.628906 C 230.394531 82.3125 230.734375 80.90625 230.804688 79.402344 L 230.804688 78.902344 C 230.808594 77.386719 230.523438 75.933594 229.945312 74.535156 C 229.386719 73.164062 228.59375 71.949219 227.570312 70.882812 C 226.539062 69.820312 225.347656 68.992188 223.992188 68.394531 C 222.574219 67.773438 221.089844 67.46875 219.542969 67.484375 C 217.992188 67.484375 216.578125 67.789062 215.304688 68.394531 C 214.027344 69.003906 212.9375 69.835938 212.035156 70.882812 C 211.105469 71.96875 210.40625 73.183594 209.941406 74.535156 C 209.445312 75.949219 209.203125 77.402344 209.210938 78.902344 Z M 285.011719 96.046875 C 284.367188 96.695312 283.65625 97.386719 282.882812 98.125 C 282.105469 98.863281 281.253906 99.558594 280.324219 100.203125 C 279.386719 100.851562 278.386719 101.382812 277.324219 101.792969 C 276.207031 102.222656 275.050781 102.429688 273.851562 102.421875 C 270.613281 102.421875 267.625 101.8125 264.898438 100.59375 C 262.207031 99.414062 259.859375 97.75 257.851562 95.601562 C 255.886719 93.488281 254.347656 91 253.242188 88.136719 C 252.132812 85.273438 251.578125 82.195312 251.578125 78.902344 C 251.578125 75.582031 252.132812 72.5 253.242188 69.648438 C 254.347656 66.796875 255.886719 64.316406 257.851562 62.203125 C 259.855469 60.058594 262.207031 58.398438 264.898438 57.226562 C 267.625 56.023438 270.613281 55.417969 273.851562 55.417969 C 275.164062 55.417969 276.363281 55.609375 277.449219 55.992188 C 278.5 56.355469 279.488281 56.847656 280.414062 57.460938 C 281.308594 58.054688 282.128906 58.730469 282.882812 59.480469 C 283.632812 60.234375 284.339844 60.96875 285.007812 61.683594 L 285.007812 45.324219 C 285.007812 44.5625 285.242188 43.917969 285.707031 43.390625 C 286.171875 42.867188 286.867188 42.605469 287.800781 42.605469 L 295.84375 42.605469 C 296.152344 42.605469 296.480469 42.667969 296.824219 42.800781 C 297.171875 42.933594 297.488281 43.117188 297.773438 43.355469 C 298.058594 43.59375 298.292969 43.882812 298.472656 44.214844 C 298.648438 44.550781 298.738281 44.917969 298.738281 45.324219 L 298.738281 98.839844 C 298.738281 100.679688 297.773438 101.597656 295.84375 101.597656 L 288.835938 101.597656 C 288.359375 101.597656 287.988281 101.535156 287.726562 101.417969 C 287.464844 101.300781 287.242188 101.125 287.066406 100.898438 C 286.867188 100.636719 286.707031 100.347656 286.582031 100.039062 C 286.414062 99.636719 286.234375 99.238281 286.046875 98.839844 L 285.007812 96.046875 Z M 264.449219 78.902344 C 264.4375 80.417969 264.683594 81.890625 265.183594 83.324219 C 265.671875 84.695312 266.371094 85.882812 267.273438 86.882812 C 268.199219 87.90625 269.292969 88.699219 270.546875 89.265625 C 271.824219 89.851562 273.234375 90.140625 274.785156 90.140625 C 276.308594 90.140625 277.746094 89.867188 279.09375 89.320312 C 280.414062 88.789062 281.585938 88.03125 282.613281 87.046875 C 283.632812 86.058594 284.4375 84.917969 285.027344 83.628906 C 285.632812 82.3125 285.976562 80.90625 286.046875 79.402344 L 286.046875 78.902344 C 286.050781 77.386719 285.765625 75.933594 285.1875 74.535156 C 284.628906 73.164062 283.835938 71.949219 282.8125 70.882812 C 281.78125 69.820312 280.589844 68.992188 279.234375 68.394531 C 277.816406 67.773438 276.332031 67.46875 274.785156 67.484375 C 273.234375 67.484375 271.820312 67.789062 270.546875 68.394531 C 269.269531 69.003906 268.179688 69.835938 267.273438 70.882812 C 266.347656 71.96875 265.648438 73.183594 265.183594 74.535156 C 264.6875 75.949219 264.445312 77.402344 264.449219 78.902344 Z M 308.253906 45.359375 C 308.253906 44.597656 308.441406 43.953125 308.824219 43.429688 C 309.207031 42.902344 309.863281 42.640625 310.789062 42.640625 L 319.550781 42.640625 C 319.789062 42.640625 320.039062 42.707031 320.300781 42.835938 C 320.578125 42.976562 320.824219 43.164062 321.035156 43.390625 C 321.261719 43.628906 321.449219 43.917969 321.605469 44.25 C 321.761719 44.585938 321.839844 44.953125 321.839844 45.359375 L 321.839844 98.839844 C 321.839844 99.746094 321.582031 100.433594 321.070312 100.898438 C 320.558594 101.363281 319.898438 101.597656 319.085938 101.597656 L 310.789062 101.597656 C 309.863281 101.597656 309.207031 101.363281 308.824219 100.898438 C 308.441406 100.433594 308.253906 99.746094 308.253906 98.839844 Z M 368.464844 96.15625 C 366.375 98.089844 364.015625 99.597656 361.386719 100.683594 C 358.71875 101.785156 355.941406 102.328125 353.054688 102.3125 C 349.785156 102.3125 346.703125 101.71875 343.792969 100.523438 C 340.925781 99.363281 338.375 97.710938 336.140625 95.566406 C 333.917969 93.417969 332.175781 90.929688 330.921875 88.101562 C 329.632812 85.238281 328.992188 82.125 328.992188 78.757812 C 328.992188 76.660156 329.246094 74.625 329.757812 72.65625 C 330.257812 70.722656 330.984375 68.878906 331.941406 67.125 C 332.886719 65.398438 334.03125 63.820312 335.375 62.382812 C 336.714844 60.941406 338.222656 59.707031 339.894531 58.675781 C 341.601562 57.632812 343.410156 56.832031 345.332031 56.277344 C 347.351562 55.695312 349.414062 55.410156 351.515625 55.417969 C 353.496094 55.417969 355.414062 55.683594 357.273438 56.207031 C 359.132812 56.730469 360.878906 57.472656 362.511719 58.425781 C 364.144531 59.378906 365.636719 60.527344 367 61.863281 C 368.34375 63.183594 369.511719 64.644531 370.503906 66.25 C 371.484375 67.84375 372.242188 69.535156 372.773438 71.332031 C 373.308594 73.132812 373.578125 74.988281 373.578125 76.898438 C 373.578125 78.136719 373.558594 79.152344 373.523438 79.941406 C 373.488281 80.726562 373.304688 81.355469 372.96875 81.820312 C 372.636719 82.285156 372.082031 82.605469 371.304688 82.785156 C 370.53125 82.964844 369.394531 83.054688 367.894531 83.054688 L 342.148438 83.054688 C 342.386719 84.582031 342.871094 85.859375 343.597656 86.886719 C 344.277344 87.867188 345.117188 88.683594 346.117188 89.335938 C 347.070312 89.945312 348.082031 90.378906 349.15625 90.644531 C 350.152344 90.898438 351.167969 91.027344 352.195312 91.039062 C 353.054688 91.039062 353.933594 90.945312 354.839844 90.769531 C 355.734375 90.59375 356.609375 90.355469 357.46875 90.054688 C 358.273438 89.773438 359.046875 89.425781 359.792969 89.015625 C 360.496094 88.621094 361.0625 88.207031 361.492188 87.78125 C 361.875 87.46875 362.203125 87.238281 362.476562 87.082031 C 362.75 86.925781 363.042969 86.847656 363.351562 86.847656 C 363.664062 86.847656 363.976562 86.957031 364.300781 87.171875 C 364.691406 87.445312 365.054688 87.757812 365.390625 88.101562 L 369.179688 92.398438 C 369.441406 92.707031 369.609375 92.988281 369.679688 93.238281 C 369.753906 93.488281 369.789062 93.746094 369.789062 94.007812 C 369.789062 94.484375 369.65625 94.898438 369.394531 95.242188 C 369.128906 95.59375 368.820312 95.898438 368.464844 96.15625 Z M 351.265625 66.335938 C 350.335938 66.335938 349.4375 66.523438 348.566406 66.890625 C 347.679688 67.269531 346.863281 67.765625 346.117188 68.378906 C 345.355469 68.996094 344.667969 69.703125 344.0625 70.488281 C 343.480469 71.234375 342.984375 72.035156 342.578125 72.890625 L 360.847656 72.890625 C 360.367188 71.988281 359.824219 71.128906 359.222656 70.3125 C 358.644531 69.53125 357.976562 68.839844 357.21875 68.234375 C 356.441406 67.621094 355.582031 67.15625 354.644531 66.839844 C 353.679688 66.503906 352.554688 66.335938 351.265625 66.335938 Z M 351.265625 66.335938 " fill-opacity="1" fill-rule="nonzero"/></g></svg>